<?xml version="1.0" encoding="UTF-8"?>
<svg enable-background="new 0 0 458.445 309.924" viewBox="0 0 458.445 309.924" xmlns="http://www.w3.org/2000/svg">
 <path d="m431.331,57.74c3.023-1.908 4.969-4.176 6.265-6.66 1.368-2.556 3.132-5.4 1.26-8.388-1.836-3.06-3.888-4.32-12.528-9.612-8.566-5.4-29.304-16.992-38.88-22.14-9.468-5.22-13.464-7.596-17.964-8.784-4.392-1.152-7.128-.54-8.352,1.26-1.188,1.62-.722,4.355 1.26,8.352-.612.648-2.016.972-4.608.828-2.556-.18-5.902-.684-10.438-1.656-1.766.18-3.024,1.764-3.78,4.608-.612,2.844.072,9.612-.432,12.528-.47,2.844-1.296,4.104-2.484,4.176 .828-4.14 1.152-7.488.828-10.044-.216-2.7-1.836-3.492-2.521-5.437-.539-2.052-1.079-3.996-1.225-6.264-4.788-.684-8.928-1.008-12.96-.828-3.888.072-6.264,1.008-10.476,1.692-4.068.648-9.396,2.268-14.186,2.484s-9.396-.252-14.22-1.26c-1.332,1.224-2.448,2.808-2.952,5.04-.612,2.196-.612,4.788-.396,7.92-.974-2.088-1.944-4.356-2.521-6.66-.684-2.484-1.152-5.832-1.26-7.524 0-1.728.468-2.52 1.26-2.52 2.052-.756 3.024-1.548 3.348-2.52 .288-1.08-.396-2.521-1.654-3.348-1.152-.936-2.088-1.62-5.438-1.656-3.204-.072-6.876.54-14.22,1.26-7.344.576-21.313,2.376-29.664,2.484-8.136-.108-14.544-3.204-19.655-2.484-5.076.756-10.369,4.968-10.873,6.66-.395,1.62 2.34,2.556 8.354,2.952-1.045,1.944-1.98,3.708-3.35,5.436-1.223,1.656-2.664,3.132-4.176,4.572l-1.26-9.18c-5.219.36-10.871.036-17.531-.828-6.625-.9-13.68-2.484-21.744-4.608-2.053,2.556-3.348,5.112-3.744,7.524s1.439,4.176 1.225,7.092c-.072,2.844-1.693,6.84-2.088,10.044-.289,3.132-.289,6.012 0,8.784-1.873-3.24-2.846-6.264-2.916-9.216 0-2.952 2.734-5.688 2.52-8.352-.109-2.7-3.348-4.608-3.348-7.524 .143-3.06 1.26-6.444 3.744-10.44-8.857-1.224-17.533-2.196-26.316-2.916-8.785-.756-17.244-1.368-25.92-1.692 .791,6.229.791,9.252 0,9.216-.828-.108-2.232-3.312-4.609-9.612-4.606.36-10.401,1.152-17.962,2.088-7.453,1.009-16.092.685-26.748,3.745-10.621,3.024-27.793,8.784-36.793,13.788-8.855,4.716-13.5,7.596-16.307,15.048-2.557,7.488-.793,13.68 0,29.7 .971,16.092 3.672,43.848 4.607,65.628 .862,21.672 1.331,40.752.432,63.504-.828,22.788-4.211,55.044-5.436,71.496-1.152,16.164-3.096,18.684-1.26,25.056 2.088,6.192 7.523,10.008 12.959,12.132 5.617,1.908 13.789,1.584 19.656,0 5.869-1.728 9.072-8.64 15.445-9.611 6.516-.899 14.832,3.133 23.004,4.177 8.172.936 16.811,1.26 25.92,1.26 .18-.072.828-2.628 2.088-7.956 1.332-5.399 4.391-22.212 5.436-23.796 1.008-1.512.359,10.764.828,14.616 .719,3.672 2.016,5.399 2.916,7.956 .971,2.556 1.764,5.111 2.52,7.522 5.293-2.088 11.664-3.312 19.656-4.212 8.064-.792 19.332-1.115 27.973-.828 8.711.108 16.559.722 23.832,1.692 1.188,2.412 2.951,3.853 5.436,4.176 2.592.216 5.939-1.403 9.611-2.088 3.709-.647 7.885-1.26 12.527-1.691 5.293,1.008 9.721,1.477 13.824,1.261 4.033-.253 7.561-1.044 10.44-2.521l3.744-11.699c2.376.973 3.96,2.521 4.607,5.039 .756,2.412.575,5.616-.396,9.612 3.888,3.78 8.208,5.868 13.355,6.265 5.147.323 10.403-3.239 17.137-4.177 6.947-1.08 16.416-2.016 23.398-1.691s12.89,1.584 18,3.779c.828-.504 1.009-2.592.828-6.264-.18-3.853-1.8-10.944-2.088-15.876-.072-4.968.396-12.672.828-13.393 .504-.685.684,5.761 1.656,9.181 1.15,3.132 3.239,6.479 4.176,10.476 .864,4.104 1.151,8.568.864,13.788 6.479-1.044 12.096-1.512 17.136-1.26 5.04.107 4.68.576 12.96,2.521 8.46,2.053 26.964,7.235 37.188,9.181 10.297,1.69 17.315,1.367 23.832,1.26 6.553-.18 11.845.324 15.049-2.088 3.238-2.521 4.318-3.96 4.606-12.528 .468-8.676-1.655-19.836-2.088-38.88-.324-19.332-2.412-54.324-.432-75.24 2.052-20.88 8.495-36.359 12.526-48.924 4.213-12.528 9.686-16.524 12.133-25.884 2.483-9.54 5.221-23.184 2.521-30.528-2.664-7.416-12.132-11.88-18.396-13.392-6.155-1.548-17.101,4.752-18.396,4.176-1.148-.759 2.56-3.495 11.273-8.355z" stroke="#000" stroke-linecap="round" stroke-linejoin="round" stroke-miterlimit="10" stroke-width=".9978"/>
 <path d="m347.415,12.776c2.089.144 4.067.396 6.084.468 2.089.072 3.853.252 5.832.108 2.053-.288 4.104-.72 6.301-1.44 8.748,5.976 15.552,11.412 20.699,16.848 5.185,5.292 6.695,9.972 9.937,15.012 3.312,5.004 6.084,10.62 9.432,14.76 3.35,3.996 6.806,7.056 10.514,9.324 2.734,3.348 4.752,10.368 6.19,21.636 1.478,11.304 2.376,33.3 2.558,45.288 .322,11.772-.434,7.992-.864,25.2-.288,17.316-.648,61.236-1.08,77.474-.288,15.947-.468,11.628-1.224,18.144-.722,6.444-3.456,14.473-3.492,20.196 .144,5.508 3.852,7.775 3.492,13.176-.396,5.328-2.376,11.448-5.94,18.648-4.824.646-9.9.72-15.372.358-5.328-.358-10.044-1.15-17.063-2.664-7.058-1.728-17.316-5.184-24.806-7.02-7.2-1.908-12.996-3.204-18.792-3.744-5.76-.576-10.8-.359-15.516.647 .106-4.859-.288-9.107-1.188-12.889-.936-3.852-2.88-5.651-4.176-9.72-1.152-4.176-2.196-9.145-2.988-15.048-1.188,1.403-2.23,3.563-3.274,6.336-1.044,2.808-2.412,6.191-2.7,10.439-.036,4.247 1.584,10.765 1.8,14.544 .108,3.637-.036,5.903-.828,7.093-2.446-1.261-6.982-2.27-14.004-2.736-7.02-.612-20.664-.828-27.61-.504-6.732.252-9.182,2.269-13.178,2.304-3.924-.035-7.344-.756-10.402-2.304 1.044-2.664.826-5.112-.504-7.74-1.332-2.664-3.78-5.111-7.488-7.739-.36,1.943-.973,4.176-1.836,6.553-.756,2.34-.974,6.264-3.276,7.739-2.34,1.403-6.479,1.08-10.62.827-3.996-.323-8.604-1.115-13.68-2.52-1.584,1.729-3.816,2.844-6.553,3.636-2.807.756-6.91,1.225-9.936.721-2.844-.611-5.219-1.979-7.127-4.248-14.221.071-25.992.107-35.605.252-9.574.071-15.73-.145-21.672.469-5.832.54-10.08,1.476-13.139,2.808-1.225-3.708-2.16-6.695-3.096-8.964-.721-2.34-1.549-1.225-2.088-4.716-.541-3.672-.541-13.608-1.404-16.488-.686-2.916-1.945-3.132-3.205-.792-1.188,2.34-2.664,9-4.283,14.725-1.549,5.651-3.168,11.987-5.004,19.151-8.641,0-16.309-.323-23.436-1.367-7.057-1.045-13.824-4.32-18.648-4.572-4.68-.288-6.805,1.368-9.576,2.881-2.629,1.403-3.781,4.644-6.66,5.688-2.844.937-7.523,3.061-10.729.145-3.203-3.061-6.084-6.407-8.244-17.819-2.016-11.735-3.348-31.788-3.996-50.832-.432-19.151 0-40.823.721-62.244 .791-21.312 3.203-42.048 3.637-64.979 .467-23.148-6.949-56.844-.721-72.612 6.48-15.732 27.18-16.992 38.627-21.42 11.629-4.464 22.393-4.068 29.664-5.076 7.201-1.08 11.377-1.656 12.961-1.584 .973,3.456 2.123,5.976 3.455,7.848 1.441,1.764 3.854,4.176 4.752,2.916 .938-1.404 1.189-5.004.758-10.944 3.096-.288 8.135-.108 15.551.54 7.523.612 16.813,1.62 28.691,3.168-1.188,2.772-1.871,5.148-2.051,7.128-.037,1.944.756,2.88 1.115,4.608 .504,1.692 1.008,2.952 1.08,5.436 0,2.376-1.404,4.86-.863,8.964 .684,4.068 2.303,8.892 4.859,15.012 1.656-1.908 3.275-4.464 4.465-8.1 1.332-3.708 2.844-10.008 3.168-13.464 .395-3.492-1.225-4.572-.973-7.128 .396-2.628 1.404-5.364 3.023-8.352 1.189,1.044 4.572,1.98 10.297,2.664 5.795.684 13.787,1.26 24.119,1.584 .469,3.24.793,5.688.973,7.488 .287,1.728.396,2.736.469,3.024 1.043-.647 2.123-1.656 3.383-3.024 1.439-1.368 2.916-2.916 4.285-5.328 1.332-2.556 2.375-5.652 3.275-9.576 24.264.72 41.22,1.044 51.983,1.116 10.729-.072 9.54-1.692 11.7-.972 2.196.792.972,2.844 1.332,5.328 .468,2.34.216,5.94 1.188,8.712 .974,2.664 2.558,5.04 4.608,7.272-.252-3.348-.036-6.3.504-8.712 .612-2.556 1.62-4.356 3.024-5.94 4.968,1.656 9.756,2.376 14.508,2.16 4.716-.252 8.712-3.168 13.932-3.744 5.4-.72 11.376-.792 18.072-.36 1.08,2.772 1.836,5.148 2.412,7.128 .576,1.908.72,1.692.864,4.5 .216,2.736.504,6.731.575,11.988 2.663.144 4.645-.252 5.939-1.476 1.332-1.224 1.477-2.988 1.944-5.688 .504-2.844 1.08-8.424 1.332-10.764 .432-2.34.54-3.348.72-3.024l.106-1.805z" fill="#e8e4d4"/>
 <path d="m277.862,7.664c.252-1.08 0-2.664.36-3.384 .432-.936 1.439-1.332 2.052-1.332 .828.108 1.836,1.044 2.052,1.836 .218.54-.252,1.548-.72,2.052-.324.36-.936.216-1.691.828-.721.684-2.521,2.772-2.916,2.916-.324-.036.756-1.98.863-2.916z" fill="#bbbda7"/>
 <path d="m163.455,8.996c-1.547,1.764-2.482,3.708-2.807,5.832-.252,2.088 1.043,4.212.971,6.768-.035,2.412-.936,5.256-1.439,8.1-.432,2.88-.791,6.48-1.225,8.856-.359,2.232-.684,3.888-.971,4.824-2.592-2.268-4.033-4.68-4.717-7.38-.576-2.844.9-6.66 1.08-8.964 .289-2.304.863-2.772.359-4.716-.395-2.124-3.096-4.644-3.238-7.272-.109-2.664.826-5.436 2.664-8.46-1.189-.36-2.449-.684-3.781-.828-1.295-.216-2.664-.252-4.104-.252 .576,1.116.936,2.664 1.225,5.184 .287,2.412.215,6.552.467,9.216 .504,2.484 1.332,2.88 1.801,6.048 .467,3.132-.037,8.712.971,12.708 1.189,3.852 3.889,10.188 5.725,10.8 1.836.54 3.6-4.608 5.293-7.272 1.871-2.808 4.68-6.479 5.219-9.216 .504-2.772-1.908-5.292-1.943-7.272 .217-2.052 2.592-3.42 2.664-4.932 .072-1.584-1.943-2.772-2.16-4.392-.072-1.656.576-3.42 1.801-5.436-1.265-.648-2.56-1.296-3.855-1.944z" fill="#bbbda7"/>
 <path d="m411.71,67.352c3.815-1.08 7.199-4.428 10.549-6.3s6.479-3.096 8.818-4.932c2.342-2.088 4.142-4.32 4.97-6.552 .936-2.232 1.188-4.284.358-6.3-.828-2.088-2.734-4.032-5.184-5.688-2.34-1.728-2.521-1.224-8.856-4.464-6.372-3.42-19.872-11.7-28.548-15.408-8.46-3.78-17.566-5.796-22.066-6.624-4.356-.9-2.988,1.332-4.104,1.548-1.008.144-.756-.612-2.16-.468-1.296.108-3.526.792-5.58,1.08-1.8.144-4.248-.216-5.832-.108-1.584-.072-3.743-.612-3.563.18 .324.684 4.066,2.592 5.398,4.176 1.514,1.584 1.729,3.708 3.134,4.968 1.512,1.044 3.238.036 5.472,1.548 2.376,1.476 4.644,3.384 8.208,7.272 3.744,3.78 10.08,10.512 13.464,15.624 3.384,5.04 4.356,11.088 6.66,14.544 2.376,3.24 4.68,4.536 7.74,5.544 3.31.9 7.486,1.296 11.122.36z" fill="#bbbda7"/>
 <path d="m430.755,37.112c-1.044-1.26-6.014-3.852-11.018-6.804-4.858-3.024-12.168-7.128-18.036-10.512-5.832-3.456-12.238-6.804-16.703-9.216-4.283-2.34-6.695-3.816-9.323-4.968-2.521-1.332-4.394-2.268-6.301-2.664-1.943-.468-3.779-.612-5.075.144-1.152.684-2.306,1.908-1.944,4.104 .432,2.052.9,4.14 4.464,8.604 3.816,4.5 12.637,12.672 17.568,18.144 5.004,5.256 8.172,9.432 11.735,13.932 3.673,4.464 6.371,9.936 9.469,12.816 3.132,2.736 6.588,3.528 8.818,3.78 2.376.072 4.753-2.16 4.608-2.664-.18-.432-3.853.684-5.58-.144-1.656-.936-3.852-2.736-4.104-5.544-.107-3.024.828-8.568 3.491-11.772 2.881-3.168 9.974-6.012 12.96-7.128 3.135-1.26 5.943.972 4.971-.108z" fill="#e8e4d4"/>
 <path d="m426.65,43.016c-1.69.72-7.416,3.42-8.712,5.472-1.224,1.836.145,4.968 1.332,6.048 1.404.972 4.86.864 6.048.108 1.26-.864 1.26-4.968.973-5.076-.217-.252-1.225,3.312-2.447,3.888-1.188.396-3.925.072-4.464-.972-.288-1.152.61-4.14 2.159-5.472 1.619-1.404 6.049-2.016 6.911-2.664 .864-.612.072-2.16-1.8-1.332z" fill="#e8e4d4"/>
 <path d="m336.183,11.804c.576,2.232 1.224,4.068 1.8,5.796 .792,1.548 1.765,1.62 1.944,4.248 .216,2.628-.072,6.408-.864,11.484 1.8.396 3.096.108 3.888-.72 .792-.9.792-2.664.974-4.464 .432-1.944.72-4.464.862-6.444 .036-2.016-.322-3.6-.252-5.184 .217-1.692.792-3.06 1.584-4.5 2.018-.072 3.168.144 3.602.504 .504.18-1.044.612-1.188,1.584-.036,1.08.686,2.7.36,4.572-.288,1.728-1.62,3.672-2.196,5.688-.324,1.908-.288,4.212-.72,6.084s-.648,3.672-2.16,4.824c-1.512,1.008-4.896,1.404-6.66,1.476-1.62.108-3.132-.216-3.274-1.116-.108-1.08 2.304-2.916 2.52-4.824 .288-1.944-.396-5.112-.936-6.444-.505-1.368-1.656-.648-1.944-1.44-.036-.864 1.116-2.628.972-3.492-.18-.9-1.655-.72-2.088-1.944-.324-1.332-.358-3.348-.106-6.048 1.29.108 2.586.216 3.882.36z" fill="#bbbda7"/>
 <path d="m455.307,91.04c1.548-4.932.864-4.464.72-6.912-.036-2.628-.288-5.472-1.438-8.1-1.188-2.664-3.276-5.364-5.688-7.272-2.268-1.944-5.65-3.672-8.496-4.356-2.88-.756-6.012-.648-8.712-.108-2.52.468-3.888.792-7.02,2.916-3.062,1.944-9.108,4.212-11.484,9.324-2.34,5.184-2.304,13.212-2.664,21.312-.216,7.956.216,13.32.72,26.388 .612,13.104 1.766,36.576 2.054,51.516 .288,14.724.036,26.315-.47,36.576-.468,10.15-1.332,17.278-2.446,24.012-.864,6.588-1.802,9.576-3.638,15.624-1.8,6.012-5.256,13.392-7.596,20.195-2.23,6.66-5.328,14.545-6.084,19.765-.646,5.076.612,8.208 1.692,10.908 1.15,2.592 2.771,4.104 4.858,5.075 2.16.792 5.112.396 7.885.359 2.951-.036 6.443-.252 9.071-.359 2.558-.217 4.429.145 6.3-.469 2.018-.684 4.32-1.871 5.545-3.274 1.297-1.513 1.979-3.421 2.195-5.438 .396-2.124.792-1.332-.358-6.912-1.116-5.796-5.112-18.504-6.302-26.747-1.044-8.244-.106-12.744-.252-22.393-.252-9.9-.972-24.229-.61-35.748 .61-11.556 2.088-21.528 3.888-32.688 1.872-11.305 3.924-23.616 7.128-33.875 3.456-10.26 9.18-18.792 12.744-27 3.633-8.423 6.91-17.387 8.458-22.319z" fill="#bbbda7"/>
 <path d="m429.639,89.672c1.548-.972 2.735-1.98 3.275-3.024 .611-1.152.863-2.196.359-3.276-.396-1.188-1.403-2.52-3.022-3.168-1.656-.72-4.104-1.368-6.66-.828-2.448.468-5.868.468-7.885,4.032-1.871,3.528-3.275,5.04-3.385,17.46 .036,12.528 2.448,42.084 2.916,56.592 .612,14.147.469,15.012.108,28.691-.252,13.823-.648,38.557-2.16,53.389-1.476,14.651-4.824,25.848-6.552,34.164-1.62,8.172-2.81,10.728-3.133,15.048-.181,4.14.611,7.884 1.691,10.26 1.08,2.34 2.27,3.168 4.824,3.889 2.736.54 9.468.973 10.908-.107 1.367-1.296-1.801-6.265-2.305-6.553-.253-.216 1.549,4.645.107,5.437-1.439.721-6.804.252-8.712-.828-1.729-1.224-2.269-3.96-2.16-5.832 .108-1.979.973-4.571 2.88-5.436 2.088-.973 5.58-.938 8.964.107 3.421.937 6.948,2.88 11.018,5.831-.648-5.867-1.261-12.6-1.692-20.482-.359-8.064-.54-17.064-.828-26.604-.216-9.504-.504-21.744-.72-29.771-.108-8.137-.324-11.412-.252-18.036 .216-6.696.107-13.5 1.08-21.528 1.116-8.172 2.808-17.892 5.076-26.388 2.447-8.568 6.048-17.748 8.712-24.229 2.628-6.444 5.146-10.044 7.02-14.292 2.018-4.392 3.816-7.164 4.86-11.628 1.188-4.5 1.872-9.54 2.052-15.264-2.088,5.004-4.716,9.324-7.74,12.816-3.06,3.492-5.976,6.66-10.548,8.136-4.464,1.368-12.6,2.196-16.092.108-3.313-2.268-4.248-9.54-4.355-13.212 0-3.816 2.053-6.84 3.637-8.928 1.69-2.052 4.319-3.276 5.938-3.528 1.692-.396 3.492.648 3.854,1.584 .252.972-1.332,2.952-1.692,3.996-.106.862.001,1.33.614,1.402z" fill="#e8e4d4"/>
 <path d="m436.299,88.124c-.9,1.872-1.944,3.276-3.132,4.356-1.116,1.008-2.377,1.656-3.78,1.944l.144,13.212c2.27-.036 3.78-.576 5.076-1.224 1.26-.756 1.98-1.8 2.304-3.132-.181-5.04-.396-10.08-.612-15.156z" fill="#e8e4d4"/>
 <path d="m10.312,72.428c-1.189-6.444-1.802-6.912-2.81-11.808-.973-5.04-3.168-12.492-2.988-17.64 .289-5.292 1.98-9.504 4.393-13.032 2.52-3.348 5.471-5.544 10.225-7.416 4.895-2.088 12.635-4.176 18.215-4.608 5.545-.468 10.98.252 14.652,2.016 3.779,1.728 6.984,3.816 7.379,8.604 .396,4.716-1.043,8.784-5.004,19.836-3.924,11.052-13.176,30.42-18.035,45.9-4.645,15.3-7.813,29.448-9.791,45.648-1.873,16.2-1.873,36-1.801,50.796 .145,14.652 1.152,26.929 2.592,36.685 1.656,9.576 4.068,13.717 6.408,21.023 2.305,7.272 5.904,16.309 7.199,22.248 1.332,5.796 1.152,8.46.828,12.42-.18,3.854-1.439,7.813-2.412,10.62-1.008,2.664-1.404,4.248-3.42,5.58-1.871,1.332-4.535,2.088-7.992,2.412-3.42.145-8.855,0-12.42-1.008-3.492-1.08-6.947-2.232-8.424-5.004-1.295-2.772-.324-1.514.396-11.629 .791-10.439 3.313-34.271 4.213-49.681 1.078-15.407 1.008-28.476 1.584-42.264 .574-13.896 1.439-25.092 1.619-40.68 .396-15.804.721-39.384 0-52.668-.754-13.282-3.312-19.978-4.606-26.35z" fill="#bbbda7"/>
 <path d="m34.539,39.56c-2.664.396-4.5-.036-5.795-1.008-1.26-1.044-2.34-3.744-1.584-5.184 1.008-1.656 3.924-3.384 6.805-3.816 2.879-.396 7.596.612 10.402,1.62 2.916.756 5.904-.108 6.625,3.78 .791,3.816.756,9.252-2.197,19.656-2.918,10.404-11.125,28.116-15.444,42.444-4.211,14.256-7.668,24.3-9.828,42.48-2.016,18.107-2.736,46.26-2.592,65.556 .289,19.224 2.088,33.84 3.996,49.104 2.016,15.119 4.572,28.619 7.813,41.075-2.771-2.124-5.473-3.6-8.389-4.823-2.809-1.188-5.832-2.341-8.641-2.195-2.734.144-6.191,1.26-7.596,2.808-1.295,1.478-1.367,3.313-.215,5.796-2.34-1.8-3.924-4.318-4.609-7.416-.646-3.274-.322-1.619.396-11.411 .865-9.937 2.988-33.084 4.033-47.089 1.008-14.004 1.619-25.884 1.979-36.468 .504-10.62.828-18.216.828-27.071 .072-9.107-.324-18.433-.611-26.46-.18-8.064-.107-13.5-.611-21.024-.434-7.596-1.045-11.16-1.98-23.904-.828-12.926-1.837-30.098-3.025-52.49 2.268,5.112 5.004,8.676 8.207,10.836 3.275,2.16 6.119,2.808 11.016,1.8 5.113-1.224 14.76-5.328 18.648-8.424 3.852-3.204 4.213-7.632 3.996-10.224-.18-2.664-2.771-4.104-5.004-5.004-2.195-.972-5.904-.828-7.813-.396-1.836.396-2.771,1.584-2.809,2.592 .072.792 2.629,1.8 3.205,2.628 .722.792.938,1.584.794,2.232z" fill="#e8e4d4"/>
 <path d="m34.358,42.728c-.756.972-1.764.9-3.42.18-1.619-.756-3.492-2.556-6.012-5.004-.539,3.384-.828,6.264-1.008,9.036-.107,2.664-.035,5.112.217,7.2 2.699-.684 4.859-1.368 6.623-2.196 1.801-.828 3.133-1.692 3.996-2.592-.107-2.196-.252-4.392-.396-6.624z" fill="#e8e4d4"/>
 <path d="m312.063,295.844c-1.08-.937-2.916-1.8-5.112-2.735-2.158-.937-4.428-1.943-8.352-2.881-3.996-1.079-10.296-2.23-15.156-3.455-4.68-1.477-9.072-2.987-13.176-4.536-4.141-1.584-7.848-3.456-10.98-4.645-2.916-1.368-4.932-2.34-6.876-2.916-1.836-.611-3.132-.864-4.464-.359-1.224.396-2.771,1.477-3.274,3.385-.36,1.8.252,5.363.288,8.063 .034,2.664-.108,5.438-.288,8.172 5.724-.646 11.986-1.15 19.079-1.367 7.164-.252 15.191-.828 23.257-.181 8.17.539 16.342,1.691 25.054,3.455z" fill="#bbbda7"/>
 <path d="m244.599,293.936c1.368-.396 2.52-1.188 3.6-2.376 1.116-1.26 1.908-2.916 2.664-4.968-.936.685-1.62.864-2.195.54-.539-.432-1.079-1.656-1.079-2.556 .288-1.044 1.114-2.593 1.8-2.7 .646-.108 1.26.504 1.836,1.979 .359-1.691.576-3.239.252-4.645-.216-1.477-.792-2.809-1.729-3.996 1.549,1.512 5.075,3.168 10.439,5.364 5.544,2.159 14.652,5.22 21.888,7.38 7.416,1.943 16.021,3.24 21.35,4.716 5.256,1.512 8.566,2.736 10.08,4.068-2.054-.54-5.4-1.044-9.9-1.368-4.5-.433-11.376-.973-17.172-.792-5.688.071-11.988,1.403-16.956,1.908-4.896.468-7.884,1.512-12.168,1.188-4.178-.394-8.283-1.691-12.71-3.742z" fill="#e8e4d4"/>
 <path d="m323.69,295.304c.072-2.952-.036-5.688-.468-8.352-.324-2.628-1.225-5.186-2.017-7.524-.721-2.483-2.053-4.68-2.881-6.731s-1.548-3.456-2.016-5.473c-.288-2.159-.108-6.119-.432-6.876s-.974.288-1.656,2.16c-.576,1.692-1.512,5.868-1.98,8.353-.396,2.412-.504,3.563-.468,6.372 .146,2.699 1.044,6.805 1.188,10.079 .216,3.204.396,6.266.252,9.182-.9-.469-1.872-1.009-3.062-1.478-1.151-.575-2.376-1.115-3.814-1.62 2.159-.862 3.384-2.23 3.814-3.814 .396-1.656-.504-4.141-1.188-6.084-.54-2.018-1.908-3.96-2.018-5.978 .108-2.194 1.729-4.787 2.089-6.659 .287-1.979-.359-3.204 0-4.788 .647-1.584 1.655-3.061 3.023-4.716 1.439-1.872 3.996-5.292 4.896-5.545 .937-.18.359,2.27.647,4.429 .324,2.053.828,5.076 1.512,7.813 1.009,2.628 2.521,5.473 3.564,7.992 1.044,2.448 1.908,3.6 2.447,6.804 .576,3.133.828,7.236.899,12.168-.747.07-1.539.177-2.331.286z" fill="#bbbda7"/>
 <path d="m238.154,277.52c-.18,1.478-.684,3.133-1.115,4.969-.396,1.801-1.115,4.284-1.729,5.903-.468,1.404-.647,2.305-1.8,3.097-1.08.685-2.736,1.261-5.256,1.439-2.447.145-6.839-.144-9.72-.432-2.771-.396-5.076-.9-6.912-1.656 6.049-.036 10.693-.504 14.076-1.548 3.349-1.116 4.321-2.628 6.266-4.536 2.123-2.017 4.139-4.428 6.19-7.236z" fill="#bbbda7"/>
 <path d="m112.946,294.044 4.537-1.836c-1.801-1.477-2.664-3.097-2.988-5.004-.18-2.018 2.088-5.004 1.547-6.444-.395-1.439-3.42-.899-4.355-2.268-.828-1.585-.432-3.854-.9-6.806-.504-3.06-1.043-8.604-1.908-11.088-.791-2.52-1.367-2.628-2.555-4.066-1.08-1.585-3.277-5.616-3.816-5.005-.396.575 1.619,5.797 1.188,8.46-.324,2.557-2.592,4.536-3.348,7.057-.648,2.376.504,3.096-.828,7.992-1.332,5.04-3.564,12.022-6.984,21.636l3.637-.107c1.188-3.601 2.195-7.164 3.168-11.269 .936-4.141 1.619-9.36 2.629-12.889 1.15-3.563 3.131-7.561 3.994-8.243 1.01-.721 1.369,1.224 1.621,3.888 .396,2.628-.217,8.604.107,11.557 .432,2.771 1.26,2.88 2.088,5.327 .899,2.412 1.907,5.4 3.166,9.108z" fill="#bbbda7"/>
 <path d="m107.367,2.264c.072,1.548.109,3.132-.035,4.752 .072,1.584 0,3.924-.504,4.68-.541.684-1.621.792-2.844-.648-1.189-1.656-2.377-4.5-3.996-8.82-.793.036-1.549.108-2.268.216-.648.036-1.262.18-1.836.288 1.691,1.62 3.131,3.456 4.318,5.364 1.26,1.908 1.729,4.5 2.953,6.12 1.332,1.548 3.744,3.168 4.607,2.916 .9-.468.432-3.564.684-5.256 .469-1.729 1.441-3.24 1.549-4.824 .145-1.692-.072-3.168-.793-4.824-.612,0-1.223,0-1.835.036z" fill="#bbbda7"/>
 <path d="m200.354,14.36c.252,2.052.684,3.852.9,5.544 .396,1.692.576,2.988.936,4.284 1.404-1.152 2.484-2.088 3.637-3.348 1.188-1.188 2.195-2.52 3.023-3.852 .9-1.512 1.549-3.276 1.943-4.464 .434-1.26.721-2.124.721-2.736 .973-.252 2.088.108 3.492,1.08 1.584.936 3.385,2.952 4.824,4.536 1.367,1.476 1.943,3.06 3.275,4.212 1.584.972 3.348,1.872 5.148,1.872 1.8-.108 3.564-2.196 5.148-2.376 1.656-.18 4.248.36 4.572.792 .288.18-.973.684-2.232.972-1.044.252-2.664.288-4.176.792-1.368.504-3.096,1.656-4.608,2.052-1.439.324-2.627.504-4.391-.576-1.656-1.296-3.924-5.868-5.689-7.056-1.584-1.296-2.844-1.26-4.211-.468-1.26.684-2.305,3.132-3.816,4.824-1.547,1.584-3.635,3.708-5.148,4.86-1.367,1.044-2.52,1.476-3.311,1.44-.289-2.304-.396-4.464-.721-6.48-.287-2.124-.396-4.104-.721-5.94 .469,0 .939,0 1.405.036z" fill="#bbbda7"/>
 <path d="m279.41,2.696c.36.324-.792.684-1.079,1.476-.145.54-.396,1.332-.359,2.52-.072,1.152.288,2.7.252,4.5 .036,1.728.252,3.996.252,5.688 .107,1.62 1.044,2.736.576,3.744-.396.864-1.008.036-2.664,1.692-1.44,1.656.144,8.388-6.518,8.136-6.694-.36-25.884-8.856-33.406-10.08-7.38-1.368-7.452,3.744-11.052,2.304-3.6-1.62-7.523-9.252-10.26-11.232-2.629-1.908-4.357-.36-5.328-.36-.973-.072.576.072-.361,0-.863-.144-4.211-.108-4.752-.864-.467-.864.506-2.844 1.945-3.996 1.584-1.152 4.248-2.772 7.164-2.916 3.023-.18 6.912,1.044 10.26,1.584 3.383.432 5.724.972 9.936,1.08 4.392-.036 10.332-.36 15.731-.828 5.579-.576 11.916-1.764 16.487-2.196 4.5-.432 8.244-.54 10.404-.468 2.232-.072 2.556-.144 2.772.216z" fill="#e8e4d4"/>
 <path d="m281.786,6.476c-.035-.18-.936.144-1.438,0-.324-.324-.468-1.548-.72-1.584-.146-.072-.722.972-.612,1.476 .144.432.828,1.296 1.224,1.332 .467-.036 1.582-1.044 1.546-1.224z" fill="#e8e4d4"/>
 <path d="m286.792,13.568c-.612.72-1.08,1.368-1.55,2.232-.396.648-.72,1.296-1.114,2.52-.396,1.188-.792,3.492-1.045,5.112-.181,1.512-.107,2.988.071,4.284-.646-.72-1.403-1.836-1.979-2.952-.54-1.152-1.188-3.024-1.656-4.248-.468-1.368-.648-1.98-.937-3.924-.252-2.016-.071-6.84-.287-7.956 0-1.188-.218-.576-.252,1.008-.182,1.584-.182,5.76-.288,8.208 .07,2.304-.396,3.492.684,5.652 1.152,2.088 5.292,6.156 6.192,6.66 .936.288-.648-3.168-.288-4.14 .54-.9 2.844-.936 3.022-1.512 .108-.792-1.619-1.728-1.979-2.952-.108-1.368.504-3.24.863-4.5 .469-1.26.827-2.34 1.477-3.096-.288-.108-.612-.252-.934-.396z" fill="#bbbda7"/>
 <path d="m363.039,10.976c1.225.9 3.023,2.628 5.544,5.184 2.629,2.484 5.867,6.12 9.575,10.08 3.816,3.852 8.966,9.108 12.673,13.428 3.853,4.212 7.416,9.18 9.721,12.42s2.592,5.112 3.924,6.876c1.404,1.62 2.7,2.052 4.32,2.952 1.872.936 5.544,1.764 6.012,2.34 .36.432-1.44.828-3.313.36-1.728-.612-4.896-1.8-6.876-3.564-1.871-1.908-2.376-4.284-4.428-7.128-1.908-2.88-4.464-6.3-7.38-9.72s-4.572-5.76-9.828-11.052c-5.076-5.436-11.916-12.492-20.664-21.312 .215-.288.467-.576.72-.864z" stroke="#000" stroke-linecap="round" stroke-linejoin="round" stroke-miterlimit="10" stroke-width=".036"/>
 <path d="m420.963,69.152c-1.226.576-2.412,1.404-3.564,2.484-1.116,1.008-2.231,1.8-3.204,3.924-.863,2.124-1.728,4.356-2.304,8.496-.433,4.068-.864,8.676-.864,15.624 .072,6.768.721,17.532.973,25.2 .252,7.632.54,13.464.721,20.556 .288,6.912.54,13.86.756,21.24 .288,7.38.684,14.904.612,22.968 0,8.064-.108,15.984-.864,24.877-.612,8.783-1.26,18.937-3.061,27.396-1.801,8.244-4.859,15.516-7.381,22.392-2.34,6.841-5.146,13.5-6.768,18.433-1.477,4.824-2.124,7.2-2.34,10.332-.072,2.845.468,5.437 1.332,7.633 .862,2.195 2.699,4.5 3.708,5.796 1.079,1.26 1.979,1.836 2.699,1.729l-3.061.107c-1.584-1.368-2.952-2.88-3.96-4.681-.972-1.907-1.836-3.815-2.196-6.155-.288-2.376-.72-3.564.252-7.74 1.226-4.319 3.925-11.844 6.014-17.567 2.124-5.832 4.176-11.771 6.012-16.991 1.908-5.257 3.563-7.921 4.824-14.257 1.332-6.588 2.411-15.119 2.952-24.048 .539-8.893.791-19.08.61-28.765 0-9.828-.432-20.628-.756-29.052-.252-8.496-.54-13.752-.864-21.168-.287-7.596-.396-15.66-.72-23.364-.288-7.848-.684-16.56-.756-22.392 .18-5.76.468-8.496 1.26-11.664 .792-3.24 2.124-5.472 3.168-7.38 1.116-1.98 1.872-3.636 2.952-4.428 1.188-.9 2.809-1.044 3.456-.864 .685.105.757.501.362,1.329z" stroke="#000" stroke-linecap="round" stroke-linejoin="round" stroke-miterlimit="10" stroke-width=".036"/>
 <path d="m414.663,65.912c-.287.18-1.08.576-2.521.792-1.332.252-3.42.936-5.832.792-2.412-.18-6.012-.864-8.424-2.052-2.196-1.332-3.744-3.204-5.328-5.904-1.512-2.916-2.34-7.632-4.284-10.944-1.872-3.276-4.607-5.976-7.092-8.784-2.412-3.024-5.185-5.868-7.632-8.532-2.448-2.736-4.788-5.724-6.876-7.164-1.944-1.44-3.528-1.116-4.896-1.548-1.296-.576-2.16-.756-3.132-1.656-.864-1.08-1.368-3.204-2.34-4.284-.972-1.152-2.16-1.584-3.132-2.268-.828-.72-1.478-1.368-1.944-1.944-1.26-.432-2.196-.54-2.412-.468-.216.144.396.432.864,1.008 .576.324 1.404.648 2.34,1.404 1.008.756 2.628,1.656 3.492,2.988 .972,1.26 1.188,3.204 2.052,4.284 1.008.864 2.018,1.008 3.42,1.548s2.916.54 4.682,1.8c1.872,1.296 3.42,2.916 6.012,5.688 2.735,2.7 7.092,7.272 9.576,10.224 2.446,2.736 3.743,4.5 5.004,6.696 1.332,2.16 2.376,4.104 3.132,6.264 .972,2.124 1.368,4.248 2.16,6.084 .828,1.584 1.188,2.736 2.734,4.032 1.692,1.404 4.43,2.844 6.948,3.744 2.592.576 5.688.684 8.172.468 2.628-.252 6.12-1.368 7.021-1.692 .899-.432.359-.576-1.764-.576z" stroke="#000" stroke-linecap="round" stroke-linejoin="round" stroke-miterlimit="10" stroke-width=".036"/>
 <path d="m414.087,231.151c.432.359.396,11.195-.504,17.783-.9,6.48-3.638,15.013-5.148,21.168-1.404,6.12-2.7,11.27-3.492,15.156-.646,3.636-1.08,4.645-.898,7.057 .18,2.447.72,5.761 1.764,7.597 1.116,1.655 4.824,2.447 4.752,2.808 .072.216-3.456.576-4.752-.863-1.296-1.655-2.376-4.681-2.809-7.956-.181-3.239.181-6.12 1.225-11.269 1.116-5.364 3.636-13.752 4.932-19.764s1.908-10.368 2.664-15.696c.825-5.472 2.085-16.273 2.266-16.021z" stroke="#000" stroke-linecap="round" stroke-linejoin="round" stroke-miterlimit="10" stroke-width=".036"/>
 <path d="m409.876,298.508c-.758-1.979-1.188-3.528-.9-4.932 .252-1.478.972-2.736 2.304-3.35 1.478-.684 3.098-1.367 5.978-.54 2.986.828 8.892,3.492 11.304,4.934 2.484,1.188 3.492,2.159 3.168,2.628l-.72-2.988c-2.196-1.512-4.536-2.7-7.021-3.708-2.52-1.044-5.004-2.124-7.596-2.268-2.484-.252-5.437.252-7.057,1.224-1.367,1.008-1.619,3.096-1.584,4.752 .07,1.512.826,2.88 2.124,4.248z" stroke="#000" stroke-linecap="round" stroke-linejoin="round" stroke-miterlimit="10" stroke-width=".036"/>
 <path d="m250.792,276.296c3.888,1.979 8.314,3.924 13.57,5.977 5.328,1.979 11.27,4.319 17.82,6.191 6.66,1.729 13.752,3.348 21.672,4.572-5.328-1.478-10.368-2.845-15.516-4.248-5.148-1.368-10.332-2.772-14.978-4.212-4.464-1.692-8.278-3.78-11.987-5.292-3.527-1.656-7.309-3.385-9.539-4.068-2.124-.72-2.846-.576-3.708,0-.722.504-1.297,1.729-1.584,2.844-.36,1.009-.434,2.053-.36,3.528 .396,1.512.936,3.996 1.764,5.112 .864.863 2.736,1.15 2.846.863 .18-.359-1.55-1.368-2.124-2.483-.54-1.225-1.262-3.168-1.044-4.572 .322-1.476 1.475-2.88 3.168-4.212z" stroke="#000" stroke-linecap="round" stroke-linejoin="round" stroke-miterlimit="10" stroke-width=".036"/>
 <path d="m35.619,299.84c2.232-2.412 3.781-5.832 4.645-10.116 .936-4.464 1.621-9.72.684-15.768s-3.959-13.608-6.156-20.16c-2.123-6.588-4.5-11.88-6.299-19.188-1.656-7.523-2.844-16.849-3.564-25.057-.504-8.352-.359-17.136-.396-23.976-.072-6.876-.252-9.612-.143-16.813 .252-7.38.611-18.468 1.367-26.604 .721-8.172 1.764-14.076 3.275-21.888 1.693-7.884 4.033-17.388 6.445-25.02 2.447-7.668 5.471-14.472 7.955-20.808 2.629-6.444 4.824-12.096 6.984-17.532 2.268-5.544 4.283-10.944 5.76-15.084 1.439-4.176 2.305-7.272 2.592-9.828 .432-2.628.252-4.176-.396-5.76-.611-1.656-1.439-3.024-3.311-4.104-1.836-1.368-4.537-2.196-7.668-2.88-3.025-.684-5.293-1.188-10.152-.684-4.717.468-10.691,1.656-18.072,3.564l6.301-3.564c5.074-1.44 9.646-2.268 13.715-2.484 4.104-.36 7.236-.18 10.801,1.116 3.672,1.404 9.504,2.952 10.979,6.984 1.549,3.888.037,9.648-1.764,16.308-1.656,6.552-5.471,15.624-8.387,22.752-2.844,6.984-5.58,10.836-8.641,19.044-2.988,8.064-6.732,19.728-9.145,29.448-2.303,9.684-3.635,18.756-4.824,28.476-1.043,9.648-1.727,19.188-2.051,29.052-.289,9.757-.289,20.27 0,29.053 .432,8.496.971,15.013 2.051,22.319 1.262,7.345 2.773,14.292 4.682,21.24 1.943,6.804 4.967,14.04 6.551,19.476 1.621,5.364 2.629,8.173 3.168,12.602 .793,4.248 1.439,9 .828,13.14-.648,4.104-1.98,7.849-4.393,11.376-1.118.431-2.269.9-3.421,1.368z" stroke="#000" stroke-linecap="round" stroke-linejoin="round" stroke-miterlimit="10" stroke-width=".036"/>
 <path d="m10.67,299.407c-1.297-1.439-2.16-2.809-2.447-4.104-.182-1.368-.182-2.7.684-3.708 .863-1.116 2.771-2.268 4.355-2.628 1.729-.396 3.6-.396 5.615.145 2.053.359 4.105,1.368 6.445,2.483 2.412,1.08 4.932,2.448 7.703,4.104-1.547-6.12-2.916-13.104-4.391-21.24-1.441-8.172-2.809-17.856-4.105-27.252-1.152-9.54-2.34-25.704-2.879-29.053-.396-3.239-.252,5.04 0,9.433 .252,4.284.611,8.244 1.475,16.452 1.045,8.208 2.916,23.976 4.248,32.328 1.369,8.136 2.557,13.716 3.709,16.739-3.6-2.735-7.02-4.429-10.549-5.221-3.383-.756-7.955-.432-10.26.54-2.303.864-3.168,2.521-3.564,4.393-.287,1.801.254,3.708 1.621,6.155 .756.147 1.547.291 2.34.434z" stroke="#000" stroke-linecap="round" stroke-linejoin="round" stroke-miterlimit="10" stroke-width=".036"/>
 <path d="m3.291,42.296c2.988,3.96 5.725,7.02 8.209,9.18 2.52,2.124 3.455,3.492 6.84,3.708 3.6.108 9.828-1.08 13.969-2.736 4.283-1.764 8.639-4.464 10.836-6.984 2.23-2.628 2.268-5.976 2.051-7.956-.252-2.052-1.475-3.096-3.275-3.96-1.619-.972-6.264-1.296-6.732-1.512-.396-.288 2.557-.432 4.141-.144 1.764.108 4.32.288 5.725,1.512 1.402,1.188 2.699,3.384 2.34,5.904-.396,2.448-2.125,6.48-4.5,9.036-2.305,2.484-5.328,4.212-9.217,5.868-3.779,1.548-9.828,3.204-13.824,3.456-3.924.072-6.984-.756-9.864-2.628-2.844-2.016-5.076-4.896-6.984-9.036 .07-1.224.177-2.448.285-3.708z" stroke="#000" stroke-linecap="round" stroke-linejoin="round" stroke-miterlimit="10" stroke-width=".036"/>
</svg>
